# xmcd CD Database Entry
#
# Track frame offsets:
# 150
# 7153
# 31798
# 66875
#
# Disc length: 1215 seconds
#
# Revision: 1
# Processed by: cddbd v1.4PL0 Copyright (c) Steve Scherf et al.
# Submitted via: tcd 2.0b
#
DISCID=2b04bd04
DTITLE=Epic Tales - Wookiie
DYEAR=1900
DGENRE=
TTITLE0=The Killing Fist
TTITLE1=Lonely Man
TTITLE2=Deceit
TTITLE3=The One Armed Swordsman
EXTD=
EXTT0=
EXTT1=
EXTT2=
EXTT3=
PLAYORDER=
